<svg width="18" height="34" viewBox="0 0 18 34" fill="none" xmlns="http://www.w3.org/2000/svg">
<path d="M13.9395 23.4082C13.9395 22.3301 13.5586 21.4219 12.7969 20.6836C12.0469 19.9453 10.7754 19.2773 8.98242 18.6797C6.48633 17.918 4.66406 16.9277 3.51562 15.709C2.37891 14.4785 1.81055 12.9199 1.81055 11.0332C1.81055 9.11133 2.36719 7.53516 3.48047 6.30469C4.60547 5.07422 6.14648 4.3418 8.10352 4.10742V0.257812H10.7227V4.125C12.6914 4.39453 14.2207 5.2207 15.3105 6.60352C16.4121 7.98633 16.9629 9.87891 16.9629 12.2812H13.7285C13.7285 10.6289 13.3359 9.31641 12.5508 8.34375C11.7656 7.37109 10.7051 6.88477 9.36914 6.88477C7.97461 6.88477 6.9082 7.24805 6.16992 7.97461C5.43164 8.68945 5.0625 9.69141 5.0625 10.9805C5.0625 12.1758 5.44922 13.1309 6.22266 13.8457C7.00781 14.5488 8.29102 15.1934 10.0723 15.7793C11.8652 16.3535 13.2598 16.9922 14.2559 17.6953C15.2637 18.3867 16.002 19.1953 16.4707 20.1211C16.9512 21.0469 17.1914 22.1309 17.1914 23.373C17.1914 25.3535 16.5938 26.9473 15.3984 28.1543C14.2148 29.3613 12.5508 30.0762 10.4062 30.2988V33.6562H7.80469V30.2988C5.625 30.0996 3.91406 29.3262 2.67188 27.9785C1.44141 26.6191 0.826172 24.7793 0.826172 22.459H4.07812C4.07812 24.0879 4.50586 25.3418 5.36133 26.2207C6.2168 27.0996 7.42969 27.5391 9 27.5391C10.5352 27.5391 11.7422 27.1699 12.6211 26.4316C13.5 25.6934 13.9395 24.6855 13.9395 23.4082Z" fill="black"/>
</svg>
