<svg width="24" height="27" viewBox="0 0 24 27" fill="none" xmlns="http://www.w3.org/2000/svg">
<path d="M0.662109 5.32812C0.662109 3.79297 1.14844 2.52734 2.12109 1.53125C3.10547 0.535156 4.36523 0.0371094 5.90039 0.0371094C7.45898 0.0371094 8.71875 0.541016 9.67969 1.54883C10.6523 2.54492 11.1387 3.83984 11.1387 5.43359V6.68164C11.1387 8.22852 10.6465 9.49414 9.66211 10.4785C8.68945 11.4512 7.44727 11.9375 5.93555 11.9375C4.41211 11.9375 3.15234 11.4512 2.15625 10.4785C1.16016 9.49414 0.662109 8.1875 0.662109 6.55859V5.32812ZM3.08789 6.68164C3.08789 7.5957 3.3457 8.35156 3.86133 8.94922C4.37695 9.53516 5.06836 9.82812 5.93555 9.82812C6.76758 9.82812 7.43555 9.54102 7.93945 8.9668C8.45508 8.39258 8.71289 7.60742 8.71289 6.61133V5.32812C8.71289 4.41406 8.46094 3.6582 7.95703 3.06055C7.45312 2.46289 6.76758 2.16406 5.90039 2.16406C5.0332 2.16406 4.34766 2.46289 3.84375 3.06055C3.33984 3.6582 3.08789 4.4375 3.08789 5.39844V6.68164ZM13.125 19.7246C13.125 18.1895 13.6113 16.9297 14.584 15.9453C15.5684 14.9492 16.8281 14.4512 18.3633 14.4512C19.8984 14.4512 21.1582 14.9434 22.1426 15.9277C23.127 16.9121 23.6191 18.2188 23.6191 19.8477V21.0957C23.6191 22.6309 23.127 23.8965 22.1426 24.8926C21.1699 25.877 19.9219 26.3691 18.3984 26.3691C16.875 26.3691 15.6152 25.8828 14.6191 24.9102C13.623 23.9258 13.125 22.6191 13.125 20.9902V19.7246ZM15.5508 21.0957C15.5508 22.0215 15.8086 22.7832 16.3242 23.3809C16.8398 23.9668 17.5312 24.2598 18.3984 24.2598C19.2422 24.2598 19.916 23.9727 20.4199 23.3984C20.9238 22.8125 21.1758 22.0215 21.1758 21.0254V19.7246C21.1758 18.7988 20.918 18.043 20.4023 17.457C19.8984 16.8711 19.2188 16.5781 18.3633 16.5781C17.5312 16.5781 16.8516 16.8711 16.3242 17.457C15.8086 18.0312 15.5508 18.8105 15.5508 19.7949V21.0957ZM6.67383 24.0664L4.82812 22.9062L17.3262 2.90234L19.1719 4.0625L6.67383 24.0664Z" fill="black"/>
</svg>
